<?xml version="1.0" encoding="utf-8" ?><svg xmlns="http://www.w3.org/2000/svg" xmlns:xlink="http://www.w3.org/1999/xlink" width="1024" height="1024" viewBox="0 0 1024 1024"><path fill="#2EE497" d="M556.291 325.52C563.689 324.52 573.457 325.15 581.075 325.045C594.842 324.857 601.873 326.62 612.774 316.904C615.321 319.265 617.854 321.642 620.373 324.033C607.788 338.158 613.403 359.636 612.995 376.891C612.889 381.4 612.058 386.04 608.55 389.204C601.591 395.478 586.937 393.171 578.189 392.87C568.83 392.548 558.459 392.311 551.25 399.359C548.998 401.56 546.459 404.792 545.29 407.725C541.32 417.692 544.589 436.992 544.561 448.015C544.548 453.222 543.858 459.441 539.859 463.198C538.316 464.648 536.487 465.48 534.408 465.824C527.879 466.906 520.894 465.644 514.28 465.724C508.606 465.793 502.933 466.654 497.265 466.423C492.196 466.217 486.375 465.217 483.126 460.905C474.633 449.633 487.627 413.642 475.034 400.425C464.287 389.145 444.593 393.139 430.649 392.994C425.649 392.942 419.323 392.445 415.763 388.51C413.834 386.378 413.103 383.528 412.711 380.747C411.593 372.809 412.602 363.985 412.735 355.978C412.843 349.53 412.508 343.038 412.807 336.6C412.934 333.862 413.428 330.103 415.703 328.23C422.491 322.64 440.325 324.909 448.563 324.834C453.729 324.787 459.136 324.055 464.256 324.805C466.987 325.206 470.924 326.232 472.811 328.416C480.857 337.726 469.847 373.295 480.801 387.666C485.414 393.718 492.554 396.734 499.903 397.756C504.298 398.367 508.71 398.199 513.134 398.12C522.874 397.945 531.908 398.134 540.03 391.8C555.888 379.434 546.989 353.867 549.348 336.725C550.059 331.555 552.156 328.561 556.291 325.52Z"/><path fill="#7A4AE5" d="M493.701 545.235C504.255 545.379 532.362 542.548 540.206 548.304C543.009 550.362 544.15 553.735 544.515 557.082C544.93 560.878 544.51 564.854 544.565 568.683C544.72 579.542 545.876 591.398 544.29 602.112C543.962 604.332 543.356 606.903 541.862 608.655C536.728 614.677 526.237 613.003 519.258 612.739C509.658 612.376 499.085 611.924 489.824 614.785C474.492 619.522 468.878 630.734 449.895 632.431C419.499 635.15 412 614.481 389.408 612.903C377.513 612.073 356.062 616.479 346.877 608.786C345.849 607.283 345.069 605.944 344.705 604.133C343.408 597.684 343.44 563.661 344.362 556.624C344.652 554.409 345.17 552.083 346.507 550.243C348.626 547.327 352.137 546.026 355.597 545.589C361.491 544.846 367.903 545.612 373.855 545.608C381.124 545.603 389.299 544.622 396.463 545.667C399.024 546.041 401.467 546.768 403.457 548.49C411.152 555.15 407.3 578.418 407.861 588.204C408.341 596.59 411.194 604.385 417.668 610.012C425.733 617.021 437.661 619.212 448.049 618.516C455.298 618.029 462.701 615.827 468.436 611.225C491.177 592.981 472.613 560.633 484.162 548.299C486.793 545.491 490.13 545.436 493.701 545.235Z"/><path fill="#2EE497" d="M494.587 471.734C504.282 471.574 533.685 470.333 540.618 474.451C546.891 478.176 544.371 524.249 543.282 532.22C542.548 537.601 536.507 539.185 532.055 539.488C522.806 539.528 490.348 541.335 484.665 536.751C481.506 534.203 481.101 531.3 480.764 527.485C480.029 519.162 478.676 480.958 483.513 475.496C486.454 472.175 490.454 471.891 494.587 471.734Z"/><path fill="#E64A83" d="M612.774 316.904C615.448 312.086 616.699 307.352 617.178 301.876C618.181 290.382 614.618 270.175 618.58 260.233C619.716 257.384 621.31 255.637 624.286 254.718C628.675 253.363 662.6 253.319 668.696 254.003C670.756 254.234 673.077 254.685 674.906 255.712C677.079 256.932 679.166 259.068 679.693 261.573C681.068 268.105 681.616 310.321 679.034 314.267C676.985 317.4 673.815 318.85 670.251 319.466C652.678 322.504 639.106 315.911 620.373 324.033C617.854 321.642 615.321 319.265 612.774 316.904Z"/><path fill="#1B2328" d="M625.405 545.609C638.163 544.689 654.782 545.76 667.837 545.438C670.352 545.376 674.938 545.853 676.567 547.99C682.903 556.302 680.597 568.191 680.895 577.945C681.104 584.833 681.509 591.525 681.033 598.204C680.589 604.437 677.941 608.485 673.289 612.325C667.39 613.412 629.502 613.074 624.337 611.323C622.139 610.578 620.992 609.724 620.009 607.571C618.911 605.165 618.363 602.438 618.16 599.811C617.643 593.127 617.283 554.594 619.016 550.544C620.132 547.938 622.949 546.633 625.405 545.609Z"/><path fill="#1B2328" d="M358.267 471.728C370.854 472.006 384.327 470.669 396.826 472.166C402.757 473.198 407.52 477.698 407.439 484.132C407.251 499.163 408.678 515.343 406.808 530.234C406.064 536.158 400.233 538.493 394.772 538.635C385.931 538.489 353.082 540.54 347.599 535.689C345.192 533.558 344.887 531.251 344.683 528.206C344.107 519.621 344.555 510.767 344.585 502.156C344.607 495.821 344.037 488.882 344.978 482.631C345.398 479.839 345.872 477.164 347.871 475.042C350.677 472.063 354.453 471.853 358.267 471.728Z"/><path fill="#1B2328" d="M352.418 398.612C360.038 397.928 395.516 397.313 401.162 399.78C403.132 400.641 404.388 403.197 405.166 405.064C406.417 408.067 407 411.27 407.296 414.494C407.96 421.721 408.166 454.753 405.768 459.985C404.594 462.545 401.922 463.855 399.423 464.779C396.955 465.36 387.57 466.036 384.305 465.58C375.09 464.294 352.478 469.093 346.603 460.876C343.635 456.726 344.465 443.498 344.66 437.937C345.006 428.079 343.637 413.984 345.356 404.579C347.775 401.474 348.955 400.431 352.418 398.612Z"/><path fill="#1B2328" d="M561.306 545.17C569.752 544.724 598.678 543.742 605.556 546.774C608.213 547.945 610.309 550.419 611.238 553.154C613.119 558.695 613.253 601.047 610.558 606.15C608.72 609.634 605.231 611.566 601.573 612.578C595.332 612.786 558.516 613.594 555.775 611.891C552.653 609.952 551.088 605.766 550.365 602.345C548.87 595.275 548.432 555.574 552.46 550.045C554.722 546.941 557.635 545.798 561.306 545.17Z"/><path fill="#1B2328" d="M628.749 472.135C636.991 471.662 665.252 470.731 672.04 473.032C675.578 474.231 678.266 476.77 679.739 480.208C681.713 484.817 681.427 528.052 679.397 532.588C677.705 536.37 673.965 537.861 670.345 539.195C664.375 540.027 655.83 539.301 649.489 539.344C641.451 539.063 631.079 541.093 623.736 537.183C616.229 533.185 618.169 519.823 618.2 512.496C618.243 502.293 618.122 491.982 618.468 481.826C618.655 476.359 623.861 473.085 628.749 472.135Z"/><path fill="#1B2328" d="M655.693 398.267C675.438 397.372 681.74 398.596 680.571 419.752C680.494 431.527 680.853 445.144 680.2 456.71C679.498 469.147 651.128 465.596 641.455 465.554C622.403 465.668 617.244 464.98 618.025 443.304C618.452 431.473 616.774 416.121 618.888 404.626C625.241 395.879 633.632 398.656 643.119 398.346C647.274 398.21 651.515 398.337 655.693 398.267Z"/><path fill="#1B2328" d="M353.047 326.126C366.214 325.715 388.426 325.111 400.943 327.079C411.353 328.716 407.122 376.395 406.095 384.575C405.746 387.35 401.003 390.52 398.733 391.62C391.032 392.667 380.654 391.967 373.369 392.285C347.696 393.407 343.16 393.02 344.523 365.575C345.05 354.96 343.36 342.705 345.332 331.505C348.192 328.333 349.021 327.423 353.047 326.126Z"/><path fill="#1B2328" d="M421.077 472.148C435.219 471.216 453.122 471.261 467.151 473.137C477.255 474.257 476.074 494.317 475.415 501.953C474.342 514.394 480.134 532.42 467.149 538.162C457.891 539.845 443.334 537.983 433.614 538.611C427.661 538.996 414.88 538.745 413.632 531.479C413.035 528 412.735 524.638 412.99 521.075C413.447 508.038 412.681 494.977 413.141 481.96C413.344 476.213 415.833 473.56 421.077 472.148Z"/><path fill="#1B2328" d="M561.545 471.62C568.863 471.286 600.504 470.496 605.828 473.041C608.212 474.18 610.607 476.827 611.328 479.39C612.744 484.423 612.292 521.066 611.701 527.738C611.52 529.778 611.368 531.846 610.299 533.645C608.305 537.001 605.393 538.085 601.768 539.01C593.12 539.134 561.601 539.93 555.733 536.904C553.111 535.552 551.409 532.894 550.692 530.088C549.299 524.636 549.277 480.624 551.733 476.849C553.987 473.385 557.694 472.289 561.545 471.62Z"/><path fill="#1B2328" d="M352.951 254.573C359.806 254.085 366.901 254.448 373.793 254.443C380.572 254.438 387.719 253.982 394.454 254.682C396.738 254.919 399.098 255.432 401.215 256.336C403.927 257.495 405.039 259.113 406.015 261.831C408.217 267.964 408.878 308.335 406.162 313.619C404.527 316.798 401.844 318.803 398.514 319.914C384.829 321.182 365.331 320.832 351.719 319.112C342.595 317.615 343.807 297.41 344.38 290.611C345.399 278.524 340.227 260.18 352.951 254.573Z"/><path fill="#1B2328" d="M422.816 398.605C435.242 398.23 452.828 397.191 464.724 399.844C478.623 402.944 474.543 425.395 475.154 436.053C475.544 442.856 475.544 453.008 473.883 459.74C473.266 462.373 467.853 464.477 465.48 465.259C457.6 466.051 447.675 465.576 439.765 465.194C432.245 464.888 412.763 467.606 413.211 455.305C413.737 440.873 411.092 417.497 413.932 404.019C416.954 400.23 418.174 399.584 422.816 398.605Z"/><path fill="#1B2328" d="M568.176 398.659C574.607 398.062 582.543 398.415 589.137 398.331C600.348 398.187 612.676 397.452 612.529 412.377C612.401 425.433 612.977 439.031 612.51 452.118C611.97 464.636 603.95 464.919 593.875 464.954C583.46 465.047 549.244 468.806 550.176 454.488C551.504 434.091 540.914 402.267 568.176 398.659Z"/><path fill="#1B2328" d="M487.961 255.103C491.933 254.798 503.985 254.538 507.725 255.05C516.979 256.318 543.822 250.146 543.483 264.923C543.107 281.367 544.95 296.987 543.061 313.13C542.743 315.844 538.168 318.687 536.013 319.73C526.053 321.557 511.884 319.803 501.645 320.277C493.494 320.654 481.394 320.136 481.258 309.095C481.061 293.079 480.363 275.941 482.221 260.054C482.467 257.906 486.291 255.897 487.961 255.103Z"/><path fill="#1B2328" d="M631.971 326.206C643.314 325.548 656.697 326.003 668.171 326.295C673.414 326.428 677.498 329.253 680.437 333.536C681.226 348.717 680.525 366.273 680.258 381.6C680.133 388.789 674.171 391.572 667.623 392.341C660.989 392.378 627.934 393.743 624.213 391.007C621.863 389.28 619.964 386.002 619.515 383.138C618.415 376.117 618.307 345.55 619.308 338.296C619.666 335.702 620.191 332.778 621.814 330.66C624.259 327.469 628.204 326.605 631.971 326.206Z"/><path fill="#1B2328" d="M423.211 254.652C431.447 254.472 462.971 254.258 469.132 256.226C471.23 256.895 473.418 257.939 474.344 260.06C476.346 264.645 476.072 308.452 474.104 312.898C472.459 316.613 469.201 318.501 465.547 319.844C456.394 320.588 425.962 322.097 418.743 317.931C415.987 316.341 414.988 314.454 414.252 311.4C412.592 304.513 412.188 263.776 415.688 258.546C417.558 255.752 420.071 255.207 423.211 254.652Z"/><path fill="#1B2328" d="M487.922 326.119C493.562 325.699 502.542 325.7 508.261 325.939C516.871 326.299 535.724 323.632 541.251 330.717C542.198 331.947 542.841 333.382 543.129 334.907C544.451 342.235 543.503 367.238 543.093 375.981C542.842 381.322 538.18 386.322 533.884 389.498C525.62 393.895 508.713 393.21 499.409 392.208C481.449 390.274 479.869 370.827 481.13 356.556C482.066 345.962 476.968 332.691 487.922 326.119Z"/><path fill="#1B2328" d="M560.94 254.664C571.138 254.647 596.298 252.981 604.702 256.197C607.283 257.184 608.527 258.261 609.608 260.844C612.398 267.514 612.734 304.829 609.733 311.235C607.937 315.067 604.357 317.444 600.509 318.858C590.863 321.182 571.502 318.805 560.918 319.459C550.204 320.122 548.949 308.897 549.427 301.045C550.154 289.094 548.952 276.504 549.898 264.507C550.487 257.034 554.111 255.403 560.94 254.664Z"/><path fill="#1B2328" d="M422.357 545.614C435.788 544.918 450.508 545.461 464.005 545.63C474.064 545.914 475.453 556.326 475.145 564.166C474.428 582.383 479.462 596.471 462.248 608.55C460.177 609.719 457.809 610.753 455.508 611.381C445.825 614.027 433.944 613.362 425.172 608.208C419.656 604.966 415.573 600.048 414.048 593.772C412.695 588.206 411.926 553.685 414.516 549.794C416.319 547.088 419.379 546.327 422.357 545.614Z"/><path fill="#2EE497" d="M745.085 667.597L751.815 667.587C751.664 676.743 752.694 745.655 751.575 748.531C751.096 749.76 750.26 750.155 749.153 750.697C743.82 750.66 744.413 742.225 744.485 738.916C733.792 751.584 719.653 755.354 705.246 745.507C683.055 725.667 695.629 682.405 728.832 689.541C736.521 691.194 740.892 695.716 744.874 702.106L745.085 667.597ZM728.162 744.019C753.057 735.305 751.361 693.023 717.646 695.615C691.204 704.046 697.971 750.614 728.162 744.019Z"/><path fill="#FBFBFB" d="M366.148 686.649C366.782 686.59 367.417 686.547 368.054 686.522C386.59 685.827 398.527 694.465 398.559 713.964C398.579 726.034 398.496 738.18 398.375 750.26L381.113 750.226L380.964 740.448C379.271 743.137 377.821 745.204 375.264 747.152C370.174 750.952 363.782 752.572 357.496 751.655C350.53 750.703 345.993 747.466 341.804 742.122C334.581 727.587 341.978 717.691 357.051 715.037C363.252 714.075 376.244 714.753 380.725 709.766C384.172 705.928 372.994 697.272 367.278 699.72C360.682 702.544 360.485 704.104 357.135 709.804C355.426 709.979 341.46 711.162 341.626 708.792C342.629 694.504 353.414 688.462 366.148 686.649ZM359.898 737.554C371.478 741.377 382.521 735.53 380.731 722.689C379.981 721.945 380.39 722.102 379.621 721.985C375.663 723.743 371.314 724.557 367.01 724.87C359.005 725.452 351.844 729.892 359.898 737.554Z"/><path fill="#2EE497" d="M650.154 689.797C666.849 687.5 682.233 699.204 684.471 715.907C686.71 732.609 674.952 747.952 658.242 750.132C641.614 752.302 626.363 740.614 624.135 723.994C621.908 707.374 633.542 692.082 650.154 689.797ZM658.713 744.367C686.021 736.114 681.741 692.712 650.491 695.597C634.658 699.481 630.137 713.5 633.417 728.436C635.96 740.009 647.215 745.562 658.713 744.367Z"/><path fill="#FBFBFB" d="M301.286 686.689C316.408 686.402 329.126 697.544 331.44 712.234C332.093 716.38 332.109 719.629 332.092 723.844C316.573 723.858 300.583 723.384 285.214 723.597C289.246 739.523 305.061 744.324 315.181 730.122C320.211 730.008 325.439 730.084 330.485 730.087L331.012 730.233L331.299 731.167C325.581 752.446 295.227 758.01 279.447 744.049C266.382 732.489 264.184 710.199 275.971 696.926C282.626 689.432 291.589 687.192 301.286 686.689ZM284.962 713.692C290.722 713.452 296.486 713.371 302.25 713.447L315.605 713.452C312.51 704.851 309.808 699.608 299.548 700.127C290.368 701.601 288.104 705.511 284.962 713.692Z"/><path fill="#FBFBFB" d="M249.149 687.515L267.454 687.617C262.591 703.235 255.272 720.544 249.418 736.148C239.39 762.183 237.627 782.92 203.343 774.624C204.761 770.403 206.246 766.205 207.797 762.031C213.32 762.951 220.977 763.638 224.277 757.833C225.224 756.144 225.595 754.193 225.335 752.275C224.784 748.398 221.848 741.935 220.287 738.035L206.717 704.219C204.932 699.763 201.46 692.228 200.522 687.754C206.573 687.493 212.656 687.64 218.715 687.712C224.095 700.638 229.835 719.28 234.489 732.928C239.512 719.015 244.456 701.911 249.149 687.515Z"/><path fill="#FBFBFB" d="M523.576 686.644L524.121 686.621C550.528 685.791 548.123 711.092 547.959 729.335L547.965 750.04L530.53 750.049C530.339 739.144 530.726 728.199 530.635 717.224C530.572 709.562 529.14 699.437 519.084 699.925C514.287 700.157 512.014 701.522 508.776 705.023C504.798 714.127 506.116 738.835 506.089 749.781C501.474 750.175 493.835 750.023 488.963 750.054L488.676 687.703C494.527 687.619 500.379 687.66 506.228 687.825C506.432 690.867 506.366 694.796 506.394 697.914C512.028 690.277 514.21 688.277 523.576 686.644Z"/><path fill="#2EE497" d="M789.618 689.126C812.515 686.816 822.577 701.675 821.744 722.499C805.464 722.234 789.181 722.143 772.899 722.225C773.467 727.6 773.999 731.535 777.176 736.216C780.202 740.765 784.941 743.896 790.313 744.894C797.598 746.228 803.694 743.842 809.496 739.75C811.857 737.297 813.174 734.499 814.664 731.5L821.503 731.553C818.413 741.638 813.165 748.057 802.38 750.537C770.663 757.83 756.988 723.952 771.267 700.071C775.204 693.486 782.246 690.439 789.618 689.126ZM773.071 717.135C781.423 717.008 789.776 716.977 798.129 717.041C803.737 717.098 809.82 717.282 815.386 717.03C812.652 702.789 806.519 694.163 790.656 695.677C777.552 698.693 774.959 704.693 773.071 717.135Z"/><path fill="#FBFBFB" d="M442.438 687.126C444.77 686.981 447.906 687.026 450.304 686.998C450.103 692.625 450.198 698.889 450.182 704.567C427.715 704.45 426.268 711.448 427.099 732.239C427.325 737.889 427.219 744.493 427.242 750.226C423.183 750.39 414.42 751.198 410.987 749.325C410.353 748.978 410.391 748.33 410.156 747.452C409.652 727.569 410.125 707.513 409.626 687.539C415.529 687.436 421.614 687.562 427.53 687.61C427.455 691.859 427.313 696.107 427.106 700.352C428.252 698.266 429.513 696.245 430.883 694.299C434.038 689.861 437.209 688.013 442.438 687.126Z"/><path fill="#FBFBFB" d="M458.899 687.504C464.648 687.541 470.485 687.695 476.24 687.8C476.83 707.59 476.358 729.982 476.388 750.031L458.977 750.056L458.899 687.504Z"/><path fill="#2EE497" d="M583.081 689.093C583.594 689.035 584.107 688.983 584.621 688.937C595.888 687.958 606.704 691.429 611.647 702.54C612.843 705.229 614 706.991 614.261 710.027C610.376 714.667 602.126 699.896 599.052 698.373C560.756 679.394 552.934 752.375 595.033 743.713C605.634 740.31 605.417 731.276 612.123 729.413C615.675 730.347 615.17 734.087 613.651 736.558C607.673 747.054 593.534 753.933 581.434 750.32C551.958 741.52 551.073 696.455 583.081 689.093Z"/><path fill="#FBFBFB" d="M466.331 660.752C471.866 660.122 476.87 664.079 477.534 669.609C478.197 675.14 474.271 680.168 468.745 680.866C463.171 681.569 458.089 677.601 457.419 672.023C456.75 666.445 460.749 661.387 466.331 660.752Z"/></svg>