<?xml version="1.0" encoding="utf-8" ?><svg xmlns="http://www.w3.org/2000/svg" xmlns:xlink="http://www.w3.org/1999/xlink" width="1024" height="1024" viewBox="0 0 1024 1024"><path fill="#3EF4A3" d="M728.187 281.57C734.011 286.787 736.994 292.329 740.991 295.853C726.209 311.656 730.627 328.548 729.584 347.989C728.436 369.364 735.206 397.487 721.352 415.248C708.532 431.684 690.94 430.754 672.277 430.677L644.003 430.534C624.674 430.451 610.876 430.148 595.731 444.703C579.015 460.174 582.177 479.249 581.3 499.363C580.328 521.65 586.939 550.92 569.177 567.825C555.595 581.127 535.359 579.576 517.411 578.991C495.928 578.291 471.523 583.978 455.279 566.545C450.72 561.684 447.502 555.722 445.939 549.243C443.585 539.875 444.12 525.518 444.37 515.362C444.846 496.044 439.971 473.559 453.51 457.735C466.076 443.048 479.916 443.439 497.514 443.492L527.989 443.602C547.128 443.671 561.849 445.262 577.605 430.951C597.086 413.257 592.44 388.318 593.093 364.657C593.173 348.588 590.061 330.52 597.62 315.579C608.977 293.133 629.354 293.746 651.209 293.806L685.781 293.925C702.989 293.963 714.873 293.928 728.187 281.57Z"/><path fill="#3EF4A3" d="M339.839 592.234L370.364 591.979C387.572 591.826 405.652 589.898 419.304 602.364C429.418 611.6 432.579 623.566 433.018 636.855C433.597 644.593 432.394 652.907 432.783 660.568C434.13 687.07 435.137 717.77 403.867 726.613C394.715 729.201 383.731 728.21 374.141 728.348C361.037 728.341 347.574 728.265 334.509 728.424C314.137 728.674 294.824 738.39 287.176 758.084C283.112 768.546 283.473 778.128 283.524 789.176L283.802 817.973C283.98 835.018 285.109 853.113 272.283 866.116C262.267 876.269 252.887 877.938 239.375 878.12C229.789 878.408 219.922 878.157 210.303 878.249C191.694 878.429 175.081 881.286 160.274 867.644C142.52 851.287 146.813 829.411 146.59 807.797C146.497 788.378 143.39 768.807 158.019 753.431C171.747 739.002 189.687 740.947 207.922 741.173C219.421 741.222 231.214 741.673 242.708 741.326C271.014 740.47 289.955 728.048 294.736 699.153C295.886 692.2 295.52 684.369 295.508 677.217L295.431 646.752C295.413 638.48 295.056 628.955 297.112 620.966C298.739 614.713 301.945 608.982 306.422 604.323C316.138 594.186 326.558 592.543 339.839 592.234Z"/><path fill="#F24B73" d="M728.187 281.57C742.945 265.287 741.211 256.449 741.966 235.886C742.602 218.546 739.418 186.147 745.159 170.507C747.73 163.518 752.295 157.437 758.288 153.016C775.234 140.296 794.434 146.237 814.34 144.645C844.764 142.212 877.278 148.795 878.95 186.031C879.888 206.929 879.716 231.681 877.153 252.41C876.333 257.346 871.332 265.128 867.845 268.969C850.032 288.585 816.905 280.075 792.923 281.518C771.178 282.826 758.049 278.853 740.991 295.853C736.994 292.329 734.011 286.787 728.187 281.57Z"/><path fill="#20262E" d="M481.917 741.199C489.929 740.205 501.405 740.933 509.759 741.089C532.503 741.514 557.637 736.684 573.601 757.18C583.11 769.389 582.273 785.778 582.027 800.434C581.794 814.33 583.283 828.184 581.555 841.961C578.524 863.062 565.45 874.251 544.999 877.872C534.206 879.165 485.29 879.162 475.568 876.873C469.696 875.453 464.191 872.808 459.413 869.11C437.018 851.927 444.906 821.317 443.38 796.99C441.563 768.034 450.248 744.74 481.917 741.199Z"/><path fill="#20262E" d="M486.282 294.213C495.604 293.425 506.618 294.086 516.011 294.073C534.456 294.258 553.817 291.096 568.691 304.707C584.864 319.506 581.884 342.327 581.898 362.177C581.905 373.47 582.791 390.171 580.047 400.736C578.447 407.132 575.242 413.016 570.735 417.829C562.134 427.042 551.56 430.746 539.246 431.237C527.126 431.281 515.006 431.239 502.887 431.11C494.214 431.014 480.733 431.213 472.705 429.108C467.404 427.672 462.488 425.078 458.311 421.513C436.751 403.26 445.682 373.551 443.989 349.067C441.78 317.134 452.266 296.527 486.282 294.213Z"/><path fill="#20262E" d="M633.01 741.216C643.331 740.887 655.354 741.641 665.655 741.071C694.133 739.494 724.418 741.835 729.21 776.435C730.464 785.493 729.639 798.453 729.614 808.148C729.587 819.106 730.984 834.954 728.926 845.269C727.573 852.029 724.621 858.367 720.317 863.753C711.744 874.317 701.479 877.123 688.617 878.415C680.796 878.81 668.772 878.61 660.833 878.505C641.538 877.936 621.952 881.753 606.193 867.87C588.764 852.984 592.218 830.607 592.249 810.015C592.277 791.246 588.742 769.48 602.681 754.415C611.28 745.123 620.727 741.961 633.01 741.216Z"/><path fill="#20262E" d="M824.786 740.729C826.265 740.681 827.744 740.645 829.224 740.623C869.726 740.056 880.964 766.261 878.403 801.971C876.89 823.053 883.958 849.253 866.571 866.613C853.902 879.263 836.653 878.682 820.477 878.633L795.971 878.554C780.721 878.679 766.98 878.886 754.794 868.213C744.905 859.552 741.911 846.812 741.496 834.107C741.36 824.37 741.027 814.478 741.133 804.745C741.331 786.617 738.114 768.392 751.577 753.967C764.446 740.179 779.28 741.42 796.386 741.204C805.854 741.137 815.321 740.979 824.786 740.729Z"/><path fill="#3EF4A3" d="M336.71 294.226C347.335 293.963 357.963 293.822 368.591 293.803C379.538 293.751 391.123 293.096 401.684 295.472C421.492 299.929 431.812 315.672 432.719 335.291C433.67 343.708 432.294 352.837 432.752 361.174C434.605 394.864 433.846 428.061 391.354 430.546C380.762 430.798 369.282 430.684 358.665 430.74C349.281 430.789 334.132 431.43 325.485 429.326C319.443 427.869 313.84 424.981 309.149 420.904C291.282 405.277 296.098 384.581 295.383 364.083C294.208 330.421 293.681 296.912 336.71 294.226Z"/><path fill="#20262E" d="M489.402 592.245C498.984 592.02 509.626 592.204 519.239 592.255C536.626 592.453 554.738 590.203 568.582 603.118C576.635 610.335 581.591 622.561 581.558 633.444C581.533 650.132 581.898 666.882 581.879 683.563C581.846 712.208 564.94 728.409 536.595 728.989C527.989 728.928 519.341 728.577 510.743 728.565C491.859 728.539 471.588 731.951 456.924 717.388C442.676 703.238 444.083 689.572 444.043 671.388C444.022 662.471 443.931 653.553 443.77 644.637C443.607 630.773 443.283 619.138 452.125 607.622C462.159 594.553 473.981 592.391 489.402 592.245Z"/><path fill="#20262E" d="M633.088 442.701C642.983 442.217 653.768 442.648 663.753 442.857C674.909 443.091 688.74 441.815 699.403 444.578C706.22 446.293 712.471 449.758 717.538 454.631C728.194 465.045 729.938 476.946 729.911 491.169C729.883 505.349 730.053 519.575 729.933 533.762C729.884 539.605 729.903 545.238 728.385 550.935C726.71 557.22 723.426 562.96 718.857 567.59C710.852 575.703 701.095 578.904 689.925 578.965C668.629 578.358 644.727 580.202 623.97 578.018C606.882 576.22 593.321 559.201 592.539 542.713C592.103 533.51 592.027 522.888 592.184 513.518C592.592 501.799 590.718 485.676 593.242 474.477C594.587 468.455 597.378 462.851 601.374 458.15C609.87 447.988 620.256 443.88 633.088 442.701Z"/><path fill="#20262E" d="M634.142 591.707C642.92 590.58 656.149 592.282 665.174 592.085C685.149 591.986 701.147 588.697 717.349 603.505C734.508 619.187 728.904 641.396 729.738 662.185C730.506 681.334 732.072 702.282 717.974 717.01C710.723 724.585 700.683 728.213 690.173 728.539L650.599 728.51C634.244 728.474 620.897 730.63 607.512 719.701C588.728 704.365 593.024 685.115 592.461 664.137C591.505 628.44 589.64 595.712 634.142 591.707Z"/><path fill="#3EF4A3" d="M186.333 144.682C195.718 143.851 206.349 145.298 214.993 144.794C247.14 142.917 280.003 144.461 283.422 184.326C284.163 192.963 283.944 202.346 283.727 211.261C283.421 223.904 285.158 239.166 282.33 251.489C280.934 257.701 278.036 263.477 273.89 268.308C265.979 277.515 257.31 280.441 245.625 281.328C224.5 282.143 199.077 282.208 178.11 280.359C162.944 279.022 146.597 259.523 146.96 244.473C147.411 225.778 143.992 193.85 148.046 176.072C149.389 170.154 152.086 164.627 155.925 159.927C164.042 149.857 173.866 146.066 186.333 144.682Z"/><path fill="#20262E" d="M523.581 144.737C540.95 144.772 556.29 143.367 569.649 156.697C584.482 171.499 581.584 193.609 581.758 212.833C581.83 220.757 581.912 228.543 582.065 236.457C582.318 249.43 578.513 260.768 569.132 269.931C556.713 282.062 544.497 281.602 528.234 281.455L504.25 281.199C486.897 280.862 471.594 283.76 457.503 271.247C440.643 256.547 444.736 232.266 444.429 212.14C444.274 201.983 443.307 184.614 445.561 175.263C447.14 168.745 450.34 162.731 454.865 157.781C471.683 139.484 500.76 145.764 523.581 144.737Z"/><path fill="#20262E" d="M197.151 592.237C206.476 592.145 216.011 592.354 225.409 592.351C243.164 592.344 258.065 590.5 271.935 603.817C280.577 612.115 284.331 624.83 283.873 636.454C283.213 653.21 285.733 687.442 280.993 702.73C279.422 707.754 276.65 712.318 272.917 716.029C261.612 727.474 249.28 728.614 234.403 728.695L204.095 728.579C186.967 728.574 171.859 730.298 158.375 717.155C148.699 707.724 146.419 694.328 146.32 681.314L146.306 651.968C146.309 630.126 144.792 609.413 166.868 597.301C177.027 591.726 185.994 592.289 197.151 592.237Z"/><path fill="#20262E" d="M184.918 294.694C196.781 293.321 212.849 294.947 225.119 294.456C241.475 293.803 260.736 293.239 272.701 306.31C286.864 321.781 283.064 344.343 283.697 363.528C283.956 370.777 283.527 378.294 283.71 385.504C284.34 410.314 269.915 429.008 244.41 430.647C239.567 431.251 222.598 431.156 217.299 431.043C207.28 430.83 188.218 431.789 179.005 429.914C172.907 428.72 167.159 426.158 162.193 422.422C153.494 415.856 148.444 405.873 146.971 395.182C145.741 386.253 145.576 335.477 147.27 326.781C148.411 320.602 150.979 314.774 154.769 309.763C162.956 299.157 172.305 296.288 184.918 294.694Z"/><path fill="#20262E" d="M336.62 144.706C346.095 143.433 358.871 145.59 367.87 144.931C397.84 142.737 428.779 147.002 432.195 183.194C432.991 191.616 432.651 202.041 432.518 210.783C432.328 223.249 434.127 238.78 431.309 250.827C429.816 256.998 426.915 262.739 422.832 267.6C414.892 277.055 405.243 280.373 393.366 281.388L355.454 281.362C347.068 281.337 334.046 281.727 326.309 280.001C320.494 278.744 315.049 276.16 310.398 272.45C298.233 262.7 294.093 246.913 295.213 232.1C296.444 215.841 293.366 191.513 296.659 176.32C298.012 169.942 300.873 163.981 305.003 158.936C313.22 148.987 324.331 145.966 336.62 144.706Z"/><path fill="#20262E" d="M631.749 145.214C634.657 144.807 654.005 144.971 657.622 145.09C668.363 145.443 687.9 144.066 697.675 146.05C703.415 147.195 708.832 149.592 713.539 153.071C721.799 159.299 727.222 168.575 728.595 178.829C730.068 189.22 730.488 241.486 728.505 250.866C727.301 256.563 724.796 261.619 721.242 266.217C713.609 276.094 703.331 279.955 691.28 281.427C676.948 281.947 662.151 281.008 647.762 281.469C640.002 281.717 630.738 281.933 623.226 280.276C617.568 279.078 612.289 276.516 607.846 272.813C598.964 265.427 593.479 254.738 592.657 243.216C592.126 236.665 592.427 221.347 592.489 214.283C592.573 204.721 591.769 184.833 593.685 176.323C595.172 169.574 598.3 163.295 602.792 158.043C610.667 148.912 620.161 146.044 631.749 145.214Z"/><path fill="#20262E" d="M779.655 592.189C784.164 591.642 801.335 591.867 806.416 591.979C817.557 592.224 835.264 590.953 845.493 593.076C851.843 594.369 857.813 597.095 862.948 601.048C879.527 613.913 877.883 631.417 878.316 650.249C879.048 682.075 884.233 723.028 841.44 728.064C835.012 728.878 817.423 728.323 810.345 728.301C800.446 728.271 782.646 729.183 773.687 727.407C767.299 726.154 761.28 723.458 756.092 719.524C740.157 707.249 740.784 687.05 741.034 668.962C741.03 657.793 741.001 646.595 741.108 635.431C741.346 610.619 754.823 594.971 779.655 592.189Z"/><path fill="#20262E" d="M783.827 294.72C791.604 293.842 803.62 294.876 811.76 294.792C830.202 294.601 851.821 292.141 866.32 305.89C879.411 318.282 879.01 337.56 878.465 354.352C877.775 375.588 883.13 402.165 866.757 418.946C858.47 427.44 847.383 430.509 835.875 430.669C824.525 430.876 813.173 430.97 801.821 430.951C792.37 430.977 779.396 431.613 770.366 429.385C753.29 425.172 741.975 408.8 741.386 391.587C740.866 373.447 741.126 355.257 741.141 337.101C741.15 326.745 744.571 316.065 751.382 308.18C760.357 297.79 770.804 295.627 783.827 294.72Z"/><path fill="#20262E" d="M334.317 443.202C341.265 442.122 351.255 443.145 358.704 442.876C389.646 441.761 427.599 440.493 432.111 480.466C433.452 492.345 432.959 503.96 433.005 515.869C433.073 533.108 434.912 550.595 423.029 564.82C415.782 573.492 405.833 577.804 394.717 578.866C384.338 579.18 373.199 578.957 362.755 578.835C345.12 578.629 325.167 581.996 310.423 570.247C293.07 556.684 295.062 534.709 295.347 514.953C295.509 503.771 294.096 485.582 296.318 474.885C297.546 468.807 300.214 463.112 304.098 458.278C311.797 448.722 322.391 444.433 334.317 443.202Z"/><path fill="#20262E" d="M184.916 443.208C198.019 441.966 213.383 443.824 226.75 442.977C234.222 442.503 243.356 442.816 250.665 444.234C270.425 448.068 282.527 463.9 283.362 483.68C283.986 500.031 283.128 516.462 283.581 532.836C284.299 559.274 270.65 577.433 243.575 579.142C223.965 579.203 203.5 578.661 184.428 578.573C157.995 578.452 144.412 553.996 146.045 530.22C147.182 513.655 144.319 489.117 147.979 473.534C149.335 467.92 151.954 462.69 155.638 458.241C163.162 449.102 173.29 444.366 184.916 443.208Z"/><path fill="#20262E" d="M779.28 443.202C790.308 442.762 801.45 443.171 812.49 442.984C834.863 442.605 858.584 440.881 871.893 462.851C876.167 469.997 878.491 481.126 877.94 489.486C876.826 506.353 880.582 532.119 877.035 548.005C875.628 554.458 872.685 560.477 868.456 565.551C861.15 574.255 851.212 578.227 840.12 579.251C833.458 580.552 816.644 579.115 809.22 578.896C791.541 578.375 769.953 581.922 755.321 570.01C739.247 556.923 741.16 536.408 741.149 517.858C741.297 504.613 739.84 486.226 742.849 473.669C744.32 467.543 747.196 461.842 751.251 457.02C758.582 448.271 768.071 444.154 779.28 443.202Z"/><path fill="#6F55E7" d="M338.338 742.21C345.647 741.156 357.668 742.431 365.349 742.477C382.874 742.582 402.664 739.185 417.385 750.888C425.631 757.279 431.297 768.175 432.075 778.649C433.245 794.393 432.664 810.801 432.943 826.632C433.062 833.414 433.048 840.624 431.491 847.25C430.06 853.213 427.312 858.78 423.449 863.542C415.195 873.809 406.221 877.023 393.621 878.466C383.826 878.762 374.115 878.728 364.347 878.561C346.282 878.257 326.809 881.138 311.785 868.861C294.691 854.891 296.723 833.826 297.004 813.939C297.17 802.168 295.865 783.95 298.539 772.689C299.936 766.765 302.693 761.247 306.591 756.574C314.944 746.607 325.843 743.314 338.338 742.21Z"/></svg>